<svg width="341" height="607" viewBox="0 0 341 607" fill="none" xmlns="http://www.w3.org/2000/svg">
<path opacity="0.3" d="M24.7001 8.65225L24.7 8.65223L17.1946 7.99589L16.9007 7.97019L16.7811 7.70047L13.8152 1.01215C13.8152 1.01205 13.8152 1.01195 13.8151 1.01184C13.6794 0.707623 13.3646 0.5 13 0.5C12.635 0.5 12.3207 0.707939 12.1865 1.01107L12.1864 1.01131L9.22017 7.70047L9.10056 7.97019L8.80664 7.99589L1.30075 8.65217C0.939905 8.68425 0.647679 8.91759 0.541594 9.22874C0.437787 9.53703 0.531233 9.87938 0.793805 10.1012L6.46727 14.8931L6.70171 15.0912L6.6313 15.3898L4.9586 22.4862C4.95858 22.4863 4.95855 22.4864 4.95853 22.4865C4.88424 22.8038 5.00948 23.1374 5.29489 23.3361L5.29589 23.3368C5.45022 23.4448 5.63321 23.5 5.81952 23.5C5.97916 23.5 6.13767 23.4591 6.2784 23.378L6.27854 23.3779L12.7505 19.6504L13 19.5067L13.2496 19.6505L19.7202 23.3779C20.0277 23.5549 20.4158 23.538 20.7047 23.3364L20.7051 23.3361C20.9905 23.1374 21.1157 22.804 21.0416 22.4867L24.7001 8.65225ZM24.7001 8.65225C25.0608 8.68368 25.353 8.91692 25.4581 9.22784C25.5624 9.53752 25.4688 9.87923 25.2061 10.1013L19.5328 14.8931L19.2983 15.0912L19.3687 15.3898L21.0414 22.4862L24.7001 8.65225Z" stroke="#F8B200"/>
<path opacity="0.3" d="M319.932 30.0682C319.761 29.5611 319.294 29.2021 318.744 29.1541L311.238 28.4978L308.272 21.8086C308.053 21.3172 307.555 21 307 21C306.445 21 305.947 21.3172 305.729 21.8086L302.763 28.4978L295.256 29.1541C294.706 29.203 294.24 29.5621 294.068 30.0682C293.897 30.5754 294.055 31.1316 294.471 31.4831L300.145 36.2751L298.472 43.372C298.349 43.8939 298.56 44.4335 299.009 44.7464C299.251 44.9155 299.535 45 299.82 45C300.064 45 300.309 44.9373 300.528 44.8112L307 41.0837L313.471 44.8112C313.945 45.0845 314.542 45.0594 314.991 44.7464C315.44 44.4335 315.651 43.8939 315.528 43.372L313.855 36.2751L319.529 31.4831C319.945 31.1316 320.103 30.5765 319.932 30.0682Z" fill="#F8B200"/>
<path opacity="0.3" d="M78.7001 112.652L78.7 112.652L71.1946 111.996L70.9007 111.97L70.7811 111.7L67.8152 105.012C67.8152 105.012 67.8152 105.012 67.8151 105.012C67.6794 104.708 67.3646 104.5 67 104.5C66.635 104.5 66.3207 104.708 66.1865 105.011L66.1864 105.011L63.2202 111.7L63.1006 111.97L62.8066 111.996L55.3007 112.652C54.9399 112.684 54.6477 112.918 54.5416 113.229C54.4378 113.537 54.5312 113.879 54.7938 114.101L60.4673 118.893L60.7017 119.091L60.6313 119.39L58.9586 126.486C58.9586 126.486 58.9586 126.486 58.9585 126.487C58.8842 126.804 59.0095 127.137 59.2949 127.336L59.2959 127.337C59.4502 127.445 59.6332 127.5 59.8195 127.5C59.9792 127.5 60.1377 127.459 60.2784 127.378L60.2785 127.378L66.7505 123.65L67 123.507L67.2496 123.65L73.7202 127.378C74.0277 127.555 74.4158 127.538 74.7047 127.336L74.7051 127.336C74.9905 127.137 75.1157 126.804 75.0416 126.487L78.7001 112.652ZM78.7001 112.652C79.0608 112.684 79.353 112.917 79.4581 113.228C79.5624 113.538 79.4688 113.879 79.2061 114.101L73.5328 118.893L73.2983 119.091L73.3687 119.39L75.0414 126.486L78.7001 112.652Z" stroke="#F8B200"/>
<path opacity="0.3" d="M25.932 339.068C25.7608 338.561 25.2938 338.202 24.7436 338.154L17.2381 337.498L14.2719 330.809C14.0529 330.317 13.5547 330 13 330C12.4454 330 11.9469 330.317 11.7293 330.809L8.76309 337.498L1.25647 338.154C0.706203 338.203 0.240239 338.562 0.0680557 339.068C-0.103135 339.575 0.0549634 340.132 0.471138 340.483L6.14464 345.275L4.47181 352.372C4.34942 352.894 4.55969 353.433 5.00919 353.746C5.2508 353.916 5.53466 354 5.81952 354C6.0643 354 6.30929 353.937 6.52808 353.811L13 350.084L19.4708 353.811C19.9454 354.084 20.5423 354.059 20.9908 353.746C21.4403 353.433 21.6506 352.894 21.5282 352.372L19.8554 345.275L25.5289 340.483C25.9449 340.132 26.1032 339.576 25.932 339.068Z" fill="#F8B200"/>
<path opacity="0.3" d="M340.937 551.313C340.779 550.848 340.348 550.519 339.84 550.475L332.912 549.873L330.174 543.741C329.972 543.291 329.512 543 329 543C328.488 543 328.028 543.291 327.827 543.741L325.089 549.873L318.16 550.475C317.652 550.519 317.222 550.849 317.063 551.313C316.905 551.777 317.051 552.287 317.435 552.61L322.672 557.002L321.128 563.508C321.015 563.986 321.209 564.481 321.624 564.768C321.847 564.923 322.109 565 322.372 565C322.598 565 322.824 564.943 323.026 564.827L329 561.41L334.973 564.827C335.411 565.077 335.962 565.054 336.376 564.768C336.791 564.481 336.985 563.986 336.872 563.508L335.328 557.002L340.565 552.61C340.949 552.287 341.095 551.778 340.937 551.313Z" fill="#F8B200"/>
<path opacity="0.3" d="M76.8666 577.759C76.5308 576.766 75.6148 576.062 74.5354 575.969L59.8133 574.683L53.995 561.584C53.5654 560.621 52.588 560 51.5 560C50.4121 560 49.4343 560.621 49.0074 561.584L43.1891 574.683L28.4646 575.969C27.3852 576.064 26.4712 576.767 26.1335 577.759C25.7977 578.752 26.1078 579.841 26.9242 580.53L38.0529 589.914L34.7716 603.812C34.5315 604.834 34.944 605.891 35.8257 606.503C36.2996 606.835 36.8565 607 37.4152 607C37.8954 607 38.3759 606.877 38.8051 606.63L51.5 599.331L64.1926 606.63C65.1238 607.165 66.2946 607.116 67.1744 606.503C68.0561 605.891 68.4685 604.834 68.2284 603.812L64.9471 589.914L76.0759 580.53C76.8919 579.841 77.2024 578.754 76.8666 577.759Z" fill="#F8B200"/>
</svg>
